<?xml version="1.0" encoding="UTF-8"?>
<svg xmlns="http://www.w3.org/2000/svg" xmlns:xlink="http://www.w3.org/1999/xlink" width="1440pt" height="809.999993pt" viewBox="0 0 1440 809.999993" version="1.2">
<defs>
<clipPath id="clip1">
  <path d="M 238 772.308594 L 430 772.308594 L 430 809.867188 L 238 809.867188 Z M 238 772.308594 "/>
</clipPath>
<clipPath id="clip2">
  <path d="M 46.402344 619.457031 L 1268.816406 619.457031 L 1268.816406 728.636719 L 46.402344 728.636719 Z M 46.402344 619.457031 "/>
</clipPath>
</defs>
<g id="surface1">
<g clip-path="url(#clip1)" clip-rule="nonzero">
<path style=" stroke:none;fill-rule:nonzero;fill:rgb(94.119263%,94.119263%,94.119263%);fill-opacity:1;" d="M 238.144531 791.335938 C 238.144531 801.566406 281.007812 809.867188 333.878906 809.867188 C 386.75 809.867188 429.613281 801.566406 429.613281 791.335938 C 429.613281 781.097656 386.75 772.800781 333.878906 772.800781 C 281.007812 772.800781 238.144531 781.097656 238.144531 791.335938 "/>
</g>
<g clip-path="url(#clip2)" clip-rule="nonzero">
<path style=" stroke:none;fill-rule:nonzero;fill:rgb(94.119263%,94.119263%,94.119263%);fill-opacity:1;" d="M 46.402344 674.125 C 46.402344 704.0625 320.050781 728.335938 657.613281 728.335938 C 995.175781 728.335938 1268.816406 704.0625 1268.816406 674.125 C 1268.816406 644.183594 995.175781 619.914062 657.613281 619.914062 C 320.050781 619.914062 46.402344 644.183594 46.402344 674.125 "/>
</g>
<path style=" stroke:none;fill-rule:nonzero;fill:rgb(96.078491%,45.098877%,36.468506%);fill-opacity:1;" d="M 221.058594 644.042969 C 221.050781 648.578125 220.613281 652.847656 222.644531 657.03125 C 224.972656 661.839844 228.925781 665.730469 233.144531 668.917969 C 234.476562 669.929688 235.910156 670.953125 236.628906 672.460938 C 238.21875 675.789062 235.460938 677.984375 232.464844 677.578125 C 229.78125 677.222656 227.199219 675.949219 224.84375 674.679688 C 220.355469 672.253906 216.328125 669.214844 210.957031 669.539062 C 207.523438 669.746094 203.855469 671.3125 200.519531 672.183594 C 192.320312 674.3125 183.976562 676.390625 175.539062 677.289062 C 172.070312 677.65625 168.492188 677.398438 164.988281 677.417969 C 163.917969 677.417969 162.808594 677.382812 161.828125 676.9375 C 160.851562 676.496094 160.023438 675.5625 160.019531 674.492188 C 160.015625 673.472656 160.71875 672.585938 160.957031 671.59375 C 161.0625 671.160156 161.074219 670.707031 161.191406 670.269531 C 161.679688 668.441406 163.777344 667.585938 165.648438 667.28125 C 165.628906 666.109375 166.359375 665.027344 167.292969 664.316406 C 168.226562 663.605469 169.347656 663.203125 170.457031 662.8125 C 179.203125 659.710938 188.722656 657.804688 195.179688 650.5625 C 198.238281 647.132812 199.96875 642.734375 202.640625 638.988281 C 203.984375 637.105469 209.152344 640.433594 210.839844 641.167969 C 214.074219 642.570312 217.46875 644.039062 221.058594 644.042969 "/>
<path style=" stroke:none;fill-rule:nonzero;fill:rgb(90.979004%,33.729553%,32.548523%);fill-opacity:1;" d="M 1072.535156 676.191406 L 1011.804688 606.355469 L 1027.804688 593.339844 L 1079.816406 666.058594 L 1072.535156 676.191406 "/>
<path style=" stroke:none;fill-rule:nonzero;fill:rgb(96.078491%,45.098877%,36.468506%);fill-opacity:1;" d="M 1181.941406 691.914062 L 1089.207031 688.355469 L 1089.257812 667.347656 L 1178.640625 679.632812 L 1181.941406 691.914062 "/>
<path style=" stroke:none;fill-rule:nonzero;fill:rgb(28.239441%,12.159729%,32.159424%);fill-opacity:1;" d="M 1186.546875 691.210938 C 1185.402344 695.953125 1179.570312 697.855469 1175.960938 694.566406 C 1171.972656 690.929688 1167.910156 684.351562 1166.960938 672.460938 C 1164.953125 647.488281 1167.054688 606.933594 1175.859375 602.695312 C 1180.132812 600.640625 1186.152344 599.855469 1191.851562 599.65625 C 1200.363281 599.367188 1206.808594 607.265625 1204.808594 615.546875 L 1186.546875 691.210938 "/>
<path style=" stroke:none;fill-rule:nonzero;fill:rgb(33.729553%,18.429565%,36.859131%);fill-opacity:1;" d="M 1191.253906 610.554688 C 1191.160156 601.820312 1184.9375 600.644531 1179.984375 601.210938 C 1178.5 601.609375 1177.101562 602.09375 1175.859375 602.695312 C 1167.183594 606.875 1165.019531 646.292969 1166.878906 671.34375 C 1174.585938 702.371094 1191.398438 624.308594 1191.253906 610.554688 "/>
<path style=" stroke:none;fill-rule:nonzero;fill:rgb(28.239441%,12.159729%,32.159424%);fill-opacity:1;" d="M 604.476562 678.546875 L 709.886719 671.960938 C 709.886719 671.960938 885.160156 498.421875 897.648438 497.324219 C 910.140625 496.222656 1039.289062 648.894531 1039.289062 648.894531 C 1039.289062 648.894531 1059.054688 652.1875 1062.351562 632.417969 C 1062.351562 632.417969 927.363281 430.964844 907.527344 428.128906 C 884.472656 424.832031 559.699219 602.363281 559.699219 602.363281 L 604.476562 678.546875 "/>
<path style=" stroke:none;fill-rule:nonzero;fill:rgb(33.729553%,18.429565%,36.859131%);fill-opacity:1;" d="M 403.539062 586.289062 L 1129.648438 668.308594 C 1129.648438 668.308594 1132.898438 679.441406 1127.898438 695.019531 L 454.539062 698.125 C 438.988281 698.195312 425.503906 687.375 422.199219 672.171875 L 403.539062 586.289062 "/>
<path style=" stroke:none;fill-rule:nonzero;fill:rgb(28.239441%,12.159729%,32.159424%);fill-opacity:1;" d="M 429.152344 589.179688 L 617.609375 610.46875 C 610.601562 613.089844 602.6875 615.886719 593.753906 618.882812 C 349.160156 700.902344 1049.171875 688.429688 1088.699219 685.136719 C 1121.171875 682.433594 1116.753906 670.671875 1114.144531 666.558594 L 1129.648438 668.308594 C 1129.648438 668.308594 1132.894531 679.441406 1127.898438 695.019531 L 454.539062 698.125 C 438.988281 698.195312 425.503906 687.375 422.199219 672.171875 L 404.726562 591.75 C 412.464844 590.921875 420.644531 590.054688 429.152344 589.179688 "/>
<path style=" stroke:none;fill-rule:nonzero;fill:rgb(21.958923%,6.669617%,26.669312%);fill-opacity:1;" d="M 613.074219 603.054688 L 762.539062 620.359375 C 760.457031 622.382812 758.417969 624.367188 756.410156 626.320312 L 612.359375 609.609375 C 610.550781 609.414062 609.246094 607.789062 609.445312 605.980469 C 609.640625 604.164062 611.253906 602.855469 613.074219 603.054688 "/>
<path style=" stroke:none;fill-rule:nonzero;fill:rgb(18.429565%,54.119873%,76.078796%);fill-opacity:1;" d="M 580.828125 221.679688 C 580.828125 221.679688 641.726562 231.105469 663.753906 286.195312 C 694.472656 363 666.824219 430.59375 682.183594 458.242188 C 697.542969 485.890625 725.183594 553.484375 725.183594 553.484375 C 725.183594 553.484375 709.824219 547.339844 697.542969 559.625 C 697.542969 559.625 608.46875 498.179688 590.042969 430.59375 C 571.613281 363 580.828125 221.679688 580.828125 221.679688 "/>
<path style=" stroke:none;fill-rule:nonzero;fill:rgb(27.839661%,60.778809%,85.879517%);fill-opacity:1;" d="M 494.257812 201.4375 C 494.257812 201.4375 596.1875 221.679688 608.46875 230.894531 C 626.109375 244.125 639.441406 280.597656 629.96875 418.300781 C 629.96875 418.300781 613.742188 565.566406 601.128906 599.050781 C 601.128906 599.050781 489.140625 634.644531 398.652344 610.632812 C 398.652344 610.632812 372.546875 494.296875 361.421875 435.230469 C 361.421875 435.230469 334.007812 474.761719 311.359375 496.433594 C 242.113281 562.691406 224.042969 647.019531 224.042969 647.019531 C 224.042969 647.019531 212 653.039062 193.9375 644.007812 C 193.9375 644.007812 215.011719 499.445312 233.078125 445.230469 C 253.105469 385.140625 283.113281 223.730469 494.257812 201.4375 "/>
<path style=" stroke:none;fill-rule:nonzero;fill:rgb(96.078491%,45.098877%,36.468506%);fill-opacity:1;" d="M 493.570312 201.515625 C 480.5625 202.914062 468.171875 204.855469 456.367188 207.300781 C 444.429688 259.476562 543.097656 307.464844 543.097656 307.464844 C 570.179688 275.246094 570.671875 238.90625 566.15625 217.332031 C 533.445312 209.222656 494.257812 201.4375 494.257812 201.4375 C 494.027344 201.464844 493.800781 201.496094 493.570312 201.515625 "/>
<path style=" stroke:none;fill-rule:nonzero;fill:rgb(18.429565%,54.119873%,76.078796%);fill-opacity:1;" d="M 414.246094 370.820312 C 383.417969 524.605469 496.332031 581.695312 548.363281 578.777344 C 594.03125 576.21875 612.441406 530.621094 617.683594 513.542969 C 613.082031 546.488281 605.933594 586.292969 601.128906 599.050781 C 601.128906 599.050781 489.140625 634.644531 398.652344 610.632812 C 398.652344 610.632812 373.066406 496.621094 361.761719 437.03125 C 388.527344 411.996094 414.246094 370.820312 414.246094 370.820312 "/>
<path style=" stroke:none;fill-rule:nonzero;fill:rgb(79.219055%,84.309387%,89.7995%);fill-opacity:1;" d="M 574.648438 601.980469 C 574.648438 601.980469 751.816406 542.902344 761.660156 542.902344 C 771.5 542.902344 896.175781 592.128906 896.175781 592.128906 L 703.398438 663.757812 C 703.398438 663.757812 584.484375 621.667969 574.648438 601.980469 "/>
<path style=" stroke:none;fill-rule:nonzero;fill:rgb(48.629761%,54.119873%,57.649231%);fill-opacity:1;" d="M 604.175781 601.921875 L 619.992188 608.246094 L 638.976562 601.921875 L 623.15625 595.589844 L 604.175781 601.921875 "/>
<path style=" stroke:none;fill-rule:nonzero;fill:rgb(48.629761%,54.119873%,57.649231%);fill-opacity:1;" d="M 632.648438 592.425781 L 648.46875 598.753906 L 667.449219 592.425781 L 651.632812 586.09375 L 632.648438 592.425781 "/>
<path style=" stroke:none;fill-rule:nonzero;fill:rgb(48.629761%,54.119873%,57.649231%);fill-opacity:1;" d="M 689.597656 595.589844 L 705.414062 601.921875 L 724.398438 595.589844 L 708.578125 589.261719 L 689.597656 595.589844 "/>
<path style=" stroke:none;fill-rule:nonzero;fill:rgb(48.629761%,54.119873%,57.649231%);fill-opacity:1;" d="M 718.070312 586.09375 L 733.890625 592.425781 L 752.871094 586.09375 L 737.050781 579.765625 L 718.070312 586.09375 "/>
<path style=" stroke:none;fill-rule:nonzero;fill:rgb(48.629761%,54.119873%,57.649231%);fill-opacity:1;" d="M 746.542969 576.601562 L 762.363281 582.929688 L 781.34375 576.601562 L 765.527344 570.269531 L 746.542969 576.601562 "/>
<path style=" stroke:none;fill-rule:nonzero;fill:rgb(48.629761%,54.119873%,57.649231%);fill-opacity:1;" d="M 661.121094 627.234375 L 676.941406 633.566406 L 695.925781 627.234375 L 680.105469 620.90625 L 661.121094 627.234375 "/>
<path style=" stroke:none;fill-rule:nonzero;fill:rgb(48.629761%,54.119873%,57.649231%);fill-opacity:1;" d="M 689.597656 617.742188 L 705.414062 624.070312 L 724.398438 617.742188 L 708.578125 611.414062 L 689.597656 617.742188 "/>
<path style=" stroke:none;fill-rule:nonzero;fill:rgb(48.629761%,54.119873%,57.649231%);fill-opacity:1;" d="M 718.070312 608.246094 L 733.890625 614.574219 L 752.871094 608.246094 L 737.050781 601.921875 L 718.070312 608.246094 "/>
<path style=" stroke:none;fill-rule:nonzero;fill:rgb(48.629761%,54.119873%,57.649231%);fill-opacity:1;" d="M 692.761719 639.894531 L 708.578125 646.222656 L 727.5625 639.894531 L 711.742188 633.566406 L 692.761719 639.894531 "/>
<path style=" stroke:none;fill-rule:nonzero;fill:rgb(48.629761%,54.119873%,57.649231%);fill-opacity:1;" d="M 721.234375 630.402344 L 737.050781 636.730469 L 756.035156 630.402344 L 740.214844 624.070312 L 721.234375 630.402344 "/>
<path style=" stroke:none;fill-rule:nonzero;fill:rgb(48.629761%,54.119873%,57.649231%);fill-opacity:1;" d="M 632.648438 614.574219 L 648.46875 620.90625 L 692.761719 605.082031 L 676.941406 598.753906 L 632.648438 614.574219 "/>
<path style=" stroke:none;fill-rule:nonzero;fill:rgb(48.629761%,54.119873%,57.649231%);fill-opacity:1;" d="M 733.890625 560.78125 L 749.707031 567.105469 L 768.691406 560.78125 L 752.871094 554.449219 L 733.890625 560.78125 "/>
<path style=" stroke:none;fill-rule:nonzero;fill:rgb(48.629761%,54.119873%,57.649231%);fill-opacity:1;" d="M 664.285156 582.929688 L 680.105469 589.261719 L 740.214844 570.269531 L 721.234375 563.941406 L 664.285156 582.929688 "/>
<path style=" stroke:none;fill-rule:nonzero;fill:rgb(58.428955%,64.309692%,68.629456%);fill-opacity:1;" d="M 574.648438 601.980469 C 574.648438 601.980469 620.578125 631.515625 709.164062 657.769531 C 712.164062 658.65625 782.726562 538.667969 785.375 536.621094 C 788.464844 534.230469 982.785156 458.554688 983.144531 460.359375 C 983.9375 464.328125 978.742188 472.59375 977.363281 475.269531 C 973.957031 481.867188 924.40625 559.148438 905.589844 585.023438 C 902.980469 588.609375 900.078125 593.078125 896.175781 595.414062 C 879.773438 605.261719 715.726562 674.175781 702.597656 670.894531 C 689.476562 667.613281 548.394531 618.386719 574.648438 601.980469 "/>
<path style=" stroke:none;fill-rule:nonzero;fill:rgb(48.629761%,54.119873%,57.649231%);fill-opacity:1;" d="M 705.878906 670.894531 C 705.296875 670.894531 704.703125 670.742188 704.171875 670.414062 C 702.625 669.472656 702.136719 667.453125 703.085938 665.902344 C 703.441406 665.316406 739.714844 605.980469 785.140625 534.574219 C 785.511719 533.992188 786.066406 533.535156 786.714844 533.28125 L 980.292969 457.796875 C 981.96875 457.136719 983.878906 457.972656 984.539062 459.664062 C 985.195312 461.351562 984.363281 463.257812 982.675781 463.914062 L 790.101562 539.007812 C 744.976562 609.953125 709.042969 668.734375 708.679688 669.324219 C 708.066406 670.339844 706.984375 670.894531 705.878906 670.894531 "/>
<path style=" stroke:none;fill-rule:nonzero;fill:rgb(100%,69.018555%,0.779724%);fill-opacity:1;" d="M 541.054688 298.875 C 541.054688 298.875 474.296875 259.378906 456.9375 207.152344 C 451.144531 208.335938 445.515625 209.636719 440.039062 211.046875 C 445.519531 228.882812 472.667969 302.953125 544.644531 321.617188 C 544.644531 321.617188 584.238281 268.890625 570.09375 218.320312 C 566.425781 217.390625 562.65625 216.464844 558.839844 215.550781 C 562.484375 235.238281 564.410156 270.613281 541.054688 298.875 "/>
<path style=" stroke:none;fill-rule:nonzero;fill:rgb(7.058716%,47.44873%,66.268921%);fill-opacity:1;" d="M 361.429688 435.285156 C 377.644531 417.707031 401.710938 389.710938 414.621094 365.527344 C 415.335938 364.183594 416.980469 363.679688 418.34375 364.394531 C 419.679688 365.109375 420.1875 366.777344 419.46875 368.117188 C 405.347656 394.578125 379.023438 424.25 362.617188 441.5 C 362.207031 439.367188 361.8125 437.289062 361.429688 435.285156 "/>
<path style=" stroke:none;fill-rule:nonzero;fill:rgb(91.369629%,67.83905%,40.779114%);fill-opacity:1;" d="M 374.566406 791.28125 L 385.421875 672.941406 L 291.890625 672.636719 L 305.265625 792.511719 C 305.265625 792.511719 342.429688 808.335938 374.566406 791.28125 "/>
<path style=" stroke:none;fill-rule:nonzero;fill:rgb(81.17981%,52.938843%,24.708557%);fill-opacity:1;" d="M 384.6875 680.933594 C 376.636719 684.414062 355.5 690.492188 310.84375 686.5625 C 310.84375 686.5625 313.355469 776.929688 354.882812 765.332031 C 365.765625 762.292969 373.179688 757.175781 378.238281 751.289062 L 374.566406 791.28125 C 342.429688 808.335938 305.265625 792.511719 305.265625 792.511719 L 291.890625 672.636719 L 385.421875 672.941406 L 384.6875 680.933594 "/>
<path style=" stroke:none;fill-rule:nonzero;fill:rgb(34.509277%,17.248535%,37.249756%);fill-opacity:1;" d="M 296.902344 655.941406 L 296.195312 644.398438 C 296.195312 644.398438 332.597656 634.769531 380.03125 644.195312 L 378.855469 655.503906 C 382.671875 656.089844 386.558594 656.753906 390.511719 657.542969 L 388.609375 675.761719 C 388.609375 675.761719 332.0625 688.277344 289.066406 675.824219 L 287.964844 657.789062 C 287.964844 657.789062 291.160156 656.953125 296.902344 655.941406 "/>
<path style=" stroke:none;fill-rule:nonzero;fill:rgb(29.019165%,10.978699%,32.548523%);fill-opacity:1;" d="M 296.195312 644.417969 C 298.441406 646.3125 307.414062 648.722656 338.6875 648.644531 L 339.425781 660.671875 L 333.597656 664.050781 L 334.652344 681.335938 C 319.71875 681.390625 303.617188 680.039062 289.066406 675.824219 L 287.964844 657.789062 C 287.964844 657.789062 291.160156 656.953125 296.902344 655.941406 L 296.195312 644.417969 "/>
<path style=" stroke:none;fill-rule:nonzero;fill:rgb(21.958923%,6.669617%,26.669312%);fill-opacity:1;" d="M 343.683594 661.558594 C 363.320312 660.355469 378.398438 656.796875 378.660156 656.734375 C 379.46875 656.542969 379.964844 655.730469 379.769531 654.921875 C 379.574219 654.109375 378.742188 653.617188 377.953125 653.808594 C 377.5 653.917969 332.441406 664.535156 297.003906 654.933594 C 296.179688 654.714844 295.375 655.195312 295.15625 656 C 294.9375 656.796875 295.414062 657.625 296.210938 657.84375 C 311.714844 662.042969 328.976562 662.460938 343.683594 661.558594 "/>
<path style=" stroke:none;fill-rule:nonzero;fill:rgb(21.958923%,6.669617%,26.669312%);fill-opacity:1;" d="M 343.152344 645.617188 C 343.960938 645.566406 344.589844 644.882812 344.566406 644.066406 C 344.546875 643.234375 343.855469 642.582031 343.019531 642.601562 L 329.804688 642.972656 C 328.859375 642.898438 328.324219 643.691406 328.34375 644.519531 C 328.371094 645.351562 329.0625 646.007812 329.890625 645.984375 L 343.105469 645.617188 C 343.121094 645.617188 343.140625 645.617188 343.152344 645.617188 "/>
<path style=" stroke:none;fill-rule:nonzero;fill:rgb(7.058716%,47.44873%,66.268921%);fill-opacity:1;" d="M 697.542969 559.625 C 697.542969 559.625 697.542969 562.695312 706.753906 562.695312 C 715.96875 562.695312 734.398438 559.625 722.113281 550.410156 C 709.824219 541.191406 697.542969 559.625 697.542969 559.625 "/>
<path style=" stroke:none;fill-rule:nonzero;fill:rgb(90.979004%,33.729553%,32.548523%);fill-opacity:1;" d="M 709.96875 542.414062 C 709.96875 542.414062 744.738281 571.703125 744.738281 576.046875 C 744.738281 582.191406 731.714844 571.703125 731.714844 571.703125 C 731.714844 571.703125 746.660156 594.171875 740.398438 597.757812 C 735.5 600.566406 724.496094 575.476562 724.496094 575.476562 C 724.496094 575.476562 736.054688 606.445312 731.714844 606.445312 C 723.03125 606.445312 715.480469 577.515625 715.480469 577.515625 C 715.480469 577.515625 718.6875 606.445312 714.347656 606.445312 C 710.269531 606.445312 705.664062 576.046875 705.664062 576.046875 C 705.664062 576.046875 695.710938 587.800781 692.640625 584.730469 C 688.300781 580.390625 705.664062 567.359375 696.980469 549.992188 C 690.84375 537.707031 709.96875 542.414062 709.96875 542.414062 "/>
<path style=" stroke:none;fill-rule:nonzero;fill:rgb(18.429565%,54.119873%,76.078796%);fill-opacity:1;" d="M 656.335938 525.796875 C 678.570312 546.527344 697.542969 559.625 697.542969 559.625 C 709.824219 547.339844 725.183594 553.484375 725.183594 553.484375 C 725.183594 553.484375 713.582031 525.121094 701.238281 497.625 C 684.242188 504.769531 667.941406 513.453125 656.335938 525.796875 "/>
<path style=" stroke:none;fill-rule:nonzero;fill:rgb(79.219055%,13.328552%,46.269226%);fill-opacity:1;" d="M 554.585938 109.605469 C 554.585938 109.605469 573.234375 127.386719 585.71875 110.085938 C 598.199219 92.789062 574.261719 76.363281 574.261719 76.363281 C 574.261719 76.363281 594.066406 65.644531 580.03125 43.863281 C 565.996094 22.085938 550.1875 37.414062 550.1875 37.414062 C 550.1875 37.414062 556.636719 7.5625 516.207031 3.824219 C 475.78125 0.0820312 479.238281 24.582031 479.238281 24.582031 C 479.238281 24.582031 460.585938 6.800781 441.523438 31.429688 C 422.460938 56.050781 444.367188 64.539062 444.367188 64.539062 C 444.367188 64.539062 431.140625 67.925781 433.171875 75.867188 C 435.207031 83.804688 443.824219 84.417969 443.824219 84.417969 C 443.824219 84.417969 417.433594 102.464844 436.757812 122.886719 C 456.089844 143.3125 476.574219 135.242188 476.574219 135.242188 L 554.585938 109.605469 "/>
<path style=" stroke:none;fill-rule:nonzero;fill:rgb(70.199585%,6.669617%,41.958618%);fill-opacity:1;" d="M 476.574219 135.242188 L 554.585938 109.605469 C 554.585938 109.605469 573.234375 127.386719 585.71875 110.085938 C 598.199219 92.789062 574.261719 76.363281 574.261719 76.363281 C 574.261719 76.363281 583.132812 71.550781 584.785156 61.835938 C 574.921875 73.394531 560.898438 57.226562 560.898438 57.226562 C 560.898438 57.226562 556.355469 72.496094 536.480469 71.949219 C 516.605469 71.402344 518.503906 56.816406 518.503906 56.816406 C 505.347656 71.46875 496.667969 59.59375 496.667969 59.59375 C 496.667969 59.59375 503.378906 74.796875 493.476562 80.152344 C 483.570312 85.511719 480.859375 74.925781 480.859375 74.925781 C 480.859375 74.925781 475.085938 107.425781 458.472656 97.582031 C 441.851562 87.742188 452.367188 73.765625 452.367188 73.765625 C 438.550781 83.417969 435 75.726562 434.09375 70.710938 C 433.117188 72.152344 432.660156 73.867188 433.171875 75.867188 C 435.207031 83.804688 443.824219 84.417969 443.824219 84.417969 C 443.824219 84.417969 417.433594 102.464844 436.757812 122.886719 C 456.089844 143.3125 476.574219 135.242188 476.574219 135.242188 "/>
<path style=" stroke:none;fill-rule:nonzero;fill:rgb(96.078491%,45.098877%,36.468506%);fill-opacity:1;" d="M 482.140625 144.285156 L 469.175781 224.566406 L 500.664062 251.632812 L 521.953125 234.199219 L 517.621094 173.59375 L 482.140625 144.285156 "/>
<path style=" stroke:none;fill-rule:nonzero;fill:rgb(90.979004%,33.729553%,32.548523%);fill-opacity:1;" d="M 519.847656 204.746094 C 510.78125 201.476562 479.53125 187.722656 483.707031 154.597656 L 517.65625 174.097656 L 519.847656 204.746094 "/>
<path style=" stroke:none;fill-rule:nonzero;fill:rgb(96.078491%,45.098877%,36.468506%);fill-opacity:1;" d="M 559.964844 99.808594 C 559.964844 99.808594 569.324219 184.203125 528.472656 182.289062 C 487.617188 180.375 480.691406 153.4375 480.691406 153.4375 C 480.691406 153.4375 462.023438 158.707031 457.582031 144.160156 C 453.144531 129.621094 458.234375 108.359375 483.285156 119.769531 C 483.285156 119.769531 512.867188 111.839844 504.796875 91.347656 C 504.796875 91.347656 524.0625 100.511719 539.867188 85.179688 C 539.867188 85.179688 545.542969 100.726562 559.964844 99.808594 "/>
<path style=" stroke:none;fill-rule:nonzero;fill:rgb(50.19989%,1.179504%,30.979919%);fill-opacity:1;" d="M 483.96875 122.414062 C 482.519531 122.785156 481.042969 121.925781 480.652344 120.480469 C 480.261719 119.019531 481.125 117.523438 482.578125 117.128906 C 482.730469 117.09375 497.488281 113.011719 502.113281 103.816406 C 503.871094 100.3125 503.917969 96.5625 502.257812 92.347656 C 501.851562 91.304688 502.117188 90.117188 502.9375 89.351562 C 503.757812 88.585938 504.960938 88.398438 505.972656 88.882812 C 506.6875 89.214844 523.765625 97 537.96875 83.21875 C 538.617188 82.589844 539.535156 82.320312 540.421875 82.503906 C 541.308594 82.6875 542.046875 83.296875 542.390625 84.132812 C 542.65625 84.765625 549.160156 99.71875 565.101562 95.628906 C 566.5625 95.257812 568.050781 96.136719 568.421875 97.601562 C 568.800781 99.058594 567.914062 100.550781 566.457031 100.921875 C 552.410156 104.523438 543.226562 96.320312 539.050781 89.535156 C 527.835938 98.46875 515.492188 97.234375 508.738281 95.523438 C 509.273438 99.296875 508.691406 102.898438 506.984375 106.285156 C 501.25 117.667969 484.695312 122.222656 483.996094 122.410156 C 483.988281 122.410156 483.976562 122.414062 483.96875 122.414062 "/>
<path style=" stroke:none;fill-rule:nonzero;fill:rgb(100%,100%,100%);fill-opacity:1;" d="M 544.4375 166.75 C 544.4375 166.75 530.09375 162.507812 505.933594 168.628906 C 505.933594 168.628906 522.777344 143.789062 535.792969 149.488281 C 542.414062 152.394531 544.4375 166.75 544.4375 166.75 "/>
<path style=" stroke:none;fill-rule:nonzero;fill:rgb(19.999695%,19.999695%,19.999695%);fill-opacity:1;" d="M 563.785156 133.410156 C 562.507812 134.695312 560.402344 134.144531 558.265625 134.03125 C 553.496094 133.773438 548.554688 133.527344 545.574219 130.167969 C 543.054688 127.324219 541.917969 122.230469 542.164062 115.050781 C 549.992188 115.941406 558.085938 117.203125 566.171875 118.945312 C 566.558594 124.347656 566.160156 131.007812 563.785156 133.410156 Z M 523.378906 130.585938 C 519.394531 133.800781 513.867188 133.144531 508.515625 132.535156 C 506.03125 132.246094 503.550781 132.445312 502.328125 130.644531 C 499.964844 127.160156 501.175781 118.527344 502.628906 113.152344 C 510.625 113.054688 519.996094 113.21875 530.097656 113.941406 C 529.042969 122.214844 526.800781 127.832031 523.378906 130.585938 Z M 570.992188 117.453125 C 570.976562 117.238281 570.886719 117.054688 570.8125 116.859375 C 570.792969 115.757812 570.070312 114.761719 568.941406 114.507812 C 523.015625 104.226562 476.34375 109.628906 475.878906 109.683594 C 474.53125 109.84375 473.570312 111.066406 473.730469 112.410156 C 473.871094 113.59375 474.824219 114.476562 475.960938 114.570312 C 476.125 114.589844 476.292969 114.585938 476.464844 114.5625 C 476.652344 114.539062 484.8125 113.601562 497.527344 113.257812 C 496.359375 118.082031 494.605469 128.011719 498.257812 133.402344 C 499.734375 135.574219 501.953125 136.84375 504.671875 137.070312 C 505.738281 137.160156 506.835938 137.289062 507.949219 137.417969 C 509.148438 137.558594 510.382812 137.699219 511.625 137.804688 C 516.679688 138.226562 521.980469 138.023438 526.460938 134.414062 C 530.996094 130.765625 533.777344 124.15625 534.996094 114.332031 C 535.75 114.394531 536.511719 114.472656 537.269531 114.542969 C 536.929688 123.308594 538.433594 129.519531 541.898438 133.429688 C 545.382812 137.363281 550.101562 138.351562 554.679688 138.734375 C 555.804688 138.828125 556.921875 138.886719 558.011719 138.941406 C 559.015625 138.992188 560.003906 139.046875 560.953125 139.125 C 563.421875 139.335938 565.609375 138.554688 567.277344 136.867188 C 571.664062 132.445312 571.488281 122.804688 570.992188 117.453125 "/>
<path style=" stroke:none;fill-rule:nonzero;fill:rgb(7.058716%,47.44873%,66.268921%);fill-opacity:1;" d="M 629.101562 272.378906 C 627.683594 272.652344 626.757812 274.019531 627.03125 275.433594 C 640.546875 345.625 624.570312 467.832031 621.679688 488.605469 C 623.035156 490.320312 624.40625 492.011719 625.796875 493.6875 C 626.097656 493.332031 626.335938 492.914062 626.410156 492.417969 C 626.617188 491.027344 647.054688 351.835938 632.15625 274.445312 C 631.890625 273.027344 630.523438 272.128906 629.101562 272.378906 "/>
<path style=" stroke:none;fill-rule:nonzero;fill:rgb(83.918762%,90.19928%,92.939758%);fill-opacity:1;" d="M 873.3125 476.675781 L 881.703125 300.535156 C 881.703125 300.535156 697.222656 287.949219 713.996094 204.074219 C 737.855469 84.742188 1393.207031 128.585938 915.242188 296.339844 L 873.3125 476.675781 "/>
<path style=" stroke:none;fill-rule:nonzero;fill:rgb(33.729553%,18.429565%,36.859131%);fill-opacity:1;" d="M 837.386719 245.40625 C 837.242188 244.519531 837.242188 243.457031 837.386719 242.199219 L 837.722656 240.542969 L 837.9375 238.773438 C 838.234375 237.003906 838.421875 234.984375 838.492188 232.695312 C 838.492188 231.738281 838.015625 231.226562 837.058594 231.152344 L 832.75 230.929688 L 825.789062 230.597656 C 825.128906 230.527344 823.652344 230.488281 821.367188 230.488281 L 814.519531 230.046875 L 813.082031 230.15625 L 811.652344 230.265625 L 810.4375 230.265625 L 809.4375 230.15625 L 808.226562 230.046875 L 807.117188 229.933594 C 805.867188 229.714844 805.316406 228.980469 805.460938 227.726562 C 805.460938 227.578125 805.539062 226.035156 805.6875 223.085938 L 805.902344 219.546875 L 806.015625 216.121094 C 806.085938 215.753906 806.128906 214.945312 806.128906 213.691406 L 806.128906 211.371094 L 806.566406 203.859375 L 806.898438 199.328125 C 806.976562 195.644531 807.160156 192.515625 807.457031 189.933594 C 807.597656 188.386719 807.820312 186.804688 808.117188 185.183594 L 808.335938 183.195312 C 808.484375 181.945312 809.148438 181.207031 810.324219 180.984375 L 815.628906 180.316406 C 817.46875 180.027344 819.824219 179.878906 822.699219 179.878906 L 822.917969 179.878906 L 823.363281 179.765625 L 824.132812 179.660156 C 825.675781 179.511719 826.339844 180.210938 826.121094 181.757812 C 825.824219 183.378906 825.640625 185.292969 825.570312 187.5 C 825.496094 188.3125 825.382812 189.382812 825.238281 190.707031 L 825.128906 193.910156 L 825.128906 194.464844 L 825.238281 194.910156 C 825.382812 195.199219 825.382812 195.53125 825.238281 195.902344 L 825.128906 199.21875 C 825.054688 200.394531 824.945312 201.5 824.796875 202.53125 L 824.464844 206.402344 L 824.027344 210.375 L 824.027344 211.039062 C 824.167969 212.070312 824.683594 212.585938 825.570312 212.585938 C 826.820312 212.734375 828.109375 212.734375 829.4375 212.585938 L 831.089844 212.480469 L 832.75 212.253906 C 833.339844 212.183594 833.960938 212.183594 834.625 212.253906 L 836.175781 212.363281 C 836.542969 212.441406 836.871094 212.441406 837.167969 212.363281 L 838.164062 212.363281 C 839.410156 212.363281 839.96875 211.8125 839.820312 210.710938 L 839.820312 207.726562 L 839.707031 204.851562 L 839.597656 203.417969 L 839.597656 201.980469 C 839.523438 201.683594 839.488281 201.242188 839.488281 200.652344 L 839.488281 199.769531 L 839.378906 198.773438 L 839.265625 197.230469 L 839.046875 195.679688 L 839.046875 194.351562 C 839.121094 193.175781 839.785156 192.476562 841.03125 192.253906 L 843.574219 191.8125 L 846.117188 191.480469 C 847.8125 191.257812 849.503906 191.222656 851.195312 191.371094 L 854.070312 191.8125 C 855.246094 192.105469 855.835938 192.734375 855.835938 193.691406 L 856.0625 195.789062 C 856.207031 196.675781 856.207031 197.414062 856.0625 198 C 855.910156 199.183594 855.835938 200.175781 855.835938 200.988281 L 855.949219 202.417969 L 855.949219 203.96875 C 856.023438 204.703125 856.0625 206.359375 856.0625 208.941406 L 856.0625 209.382812 C 856.0625 210.488281 856.6875 211.117188 857.9375 211.261719 L 859.707031 211.261719 C 860.144531 211.261719 860.734375 211.335938 861.46875 211.484375 C 862.503906 211.632812 863.167969 212.253906 863.464844 213.359375 L 863.679688 217.335938 C 863.902344 220.289062 863.640625 224.414062 862.90625 229.714844 C 862.6875 230.96875 861.949219 231.667969 860.699219 231.816406 L 858.929688 231.921875 L 857.054688 231.921875 C 855.652344 231.851562 854.953125 232.445312 854.953125 233.691406 L 854.953125 236.679688 C 855.101562 237.929688 855.101562 238.957031 854.953125 239.769531 C 854.878906 243.085938 854.691406 245.886719 854.402344 248.171875 C 854.324219 249.714844 853.40625 250.453125 851.640625 250.378906 C 851.492188 250.378906 851.382812 250.34375 851.308594 250.265625 L 850.976562 250.265625 C 850.242188 250.117188 849.648438 250.082031 849.214844 250.160156 L 848.214844 250.265625 L 847.332031 250.378906 C 844.75 250.820312 842.140625 251.152344 839.488281 251.371094 C 838.085938 251.445312 837.386719 250.746094 837.386719 249.269531 L 837.386719 245.40625 "/>
<path style=" stroke:none;fill-rule:nonzero;fill:rgb(33.729553%,18.429565%,36.859131%);fill-opacity:1;" d="M 885 220.65625 L 885.109375 221.867188 L 885.222656 222.863281 C 885.363281 223.601562 885.363281 224.265625 885.222656 224.851562 C 885.148438 226.398438 885.589844 227.765625 886.550781 228.941406 L 886.988281 229.496094 L 887.320312 230.046875 C 888.496094 231.886719 890.261719 232.515625 892.621094 231.921875 C 896.308594 230.820312 898.621094 228.167969 899.582031 223.96875 C 900.09375 221.90625 900.425781 218.667969 900.574219 214.246094 L 900.574219 208.609375 C 900.503906 206.691406 900.320312 205.074219 900.023438 203.742188 L 899.804688 202.089844 L 899.582031 200.542969 C 899.507812 200.027344 899.433594 199.433594 899.359375 198.773438 L 899.25 198 L 899.140625 197.335938 C 898.917969 195.714844 898.21875 194.320312 897.042969 193.140625 C 896.449219 192.476562 895.644531 192.105469 894.609375 192.035156 C 893.507812 191.886719 892.621094 192.148438 891.957031 192.808594 C 891.074219 193.621094 890.484375 194.246094 890.191406 194.6875 C 888.644531 197.117188 887.648438 199.402344 887.210938 201.539062 C 886.695312 204.851562 886.253906 207.726562 885.882812 210.15625 Z M 891.738281 175.457031 C 894.3125 175.53125 896.378906 175.9375 897.921875 176.671875 L 904.113281 179.21875 C 905.804688 179.804688 907.496094 181.09375 909.191406 183.082031 C 912.285156 186.472656 914.308594 190.859375 915.269531 196.234375 L 915.820312 199.769531 L 916.375 203.304688 C 916.742188 206.105469 916.777344 208.460938 916.480469 210.375 C 915.820312 216.640625 915.191406 221.316406 914.605469 224.414062 L 913.941406 227.726562 L 913.28125 231.152344 C 912.25 235.570312 910.40625 239.4375 907.757812 242.753906 C 906.058594 244.960938 904.074219 246.472656 901.792969 247.285156 L 900.90625 247.617188 L 900.246094 247.945312 C 899.582031 248.242188 899.03125 248.460938 898.585938 248.609375 C 896.160156 249.496094 893.285156 249.75 889.96875 249.382812 C 884.816406 248.351562 880.730469 247.027344 877.707031 245.40625 C 874.6875 243.636719 872.519531 240.652344 871.191406 236.453125 C 870.378906 233.726562 869.792969 230.820312 869.421875 227.726562 C 869.351562 226.988281 869.316406 225.476562 869.316406 223.195312 L 869.316406 221.867188 L 869.203125 220.542969 C 869.203125 218.1875 869.386719 215.164062 869.753906 211.484375 L 870.195312 207.28125 L 870.640625 203.082031 C 871.007812 199.472656 871.375 196.675781 871.742188 194.6875 C 872.550781 190.5625 874.246094 186.769531 876.828125 183.304688 C 878.59375 181.167969 880.871094 179.324219 883.675781 177.777344 C 885.511719 176.671875 887.722656 175.9375 890.300781 175.570312 L 891.074219 175.457031 L 891.738281 175.457031 "/>
<path style=" stroke:none;fill-rule:nonzero;fill:rgb(33.729553%,18.429565%,36.859131%);fill-opacity:1;" d="M 953.816406 245.40625 C 953.675781 244.519531 953.675781 243.457031 953.816406 242.199219 L 954.15625 240.542969 L 954.375 238.773438 C 954.671875 237.003906 954.855469 234.984375 954.925781 232.695312 C 954.925781 231.738281 954.445312 231.226562 953.492188 231.152344 L 949.183594 230.929688 L 942.226562 230.597656 C 941.5625 230.527344 940.085938 230.488281 937.800781 230.488281 L 930.949219 230.046875 L 929.519531 230.15625 L 928.082031 230.265625 L 926.867188 230.265625 L 925.871094 230.15625 L 924.660156 230.046875 L 923.554688 229.933594 C 922.296875 229.714844 921.746094 228.980469 921.898438 227.726562 C 921.898438 227.578125 921.96875 226.035156 922.117188 223.085938 L 922.339844 219.546875 L 922.445312 216.121094 C 922.519531 215.753906 922.558594 214.945312 922.558594 213.691406 L 922.558594 211.371094 L 922.996094 203.859375 L 923.332031 199.328125 C 923.40625 195.644531 923.589844 192.515625 923.886719 189.933594 C 924.03125 188.386719 924.25 186.804688 924.546875 185.183594 L 924.765625 183.195312 C 924.914062 181.945312 925.578125 181.207031 926.753906 180.984375 L 932.058594 180.316406 C 933.898438 180.027344 936.257812 179.878906 939.128906 179.878906 L 939.351562 179.878906 L 939.792969 179.765625 L 940.566406 179.660156 C 942.109375 179.511719 942.773438 180.210938 942.554688 181.757812 C 942.257812 183.378906 942.074219 185.292969 942 187.5 C 941.929688 188.3125 941.816406 189.382812 941.667969 190.707031 L 941.5625 193.910156 L 941.5625 194.464844 L 941.667969 194.910156 C 941.816406 195.199219 941.816406 195.53125 941.667969 195.902344 L 941.5625 199.21875 C 941.484375 200.394531 941.375 201.5 941.230469 202.53125 L 940.898438 206.402344 L 940.457031 210.375 L 940.457031 211.039062 C 940.601562 212.070312 941.117188 212.585938 942 212.585938 C 943.253906 212.734375 944.542969 212.734375 945.871094 212.585938 L 947.527344 212.480469 L 949.183594 212.253906 C 949.769531 212.183594 950.398438 212.183594 951.058594 212.253906 L 952.605469 212.363281 C 952.972656 212.441406 953.304688 212.441406 953.597656 212.363281 L 954.59375 212.363281 C 955.847656 212.363281 956.398438 211.8125 956.25 210.710938 L 956.25 207.726562 L 956.136719 204.851562 L 956.03125 203.417969 L 956.03125 201.980469 C 955.953125 201.683594 955.921875 201.242188 955.921875 200.652344 L 955.921875 199.769531 L 955.8125 198.773438 L 955.699219 197.230469 L 955.480469 195.679688 L 955.480469 194.351562 C 955.550781 193.175781 956.214844 192.476562 957.46875 192.253906 L 960.007812 191.8125 L 962.546875 191.480469 C 964.242188 191.257812 965.9375 191.222656 967.628906 191.371094 L 970.503906 191.8125 C 971.675781 192.105469 972.269531 192.734375 972.269531 193.691406 L 972.488281 195.789062 C 972.636719 196.675781 972.636719 197.414062 972.488281 198 C 972.339844 199.183594 972.269531 200.175781 972.269531 200.988281 L 972.382812 202.417969 L 972.382812 203.96875 C 972.453125 204.703125 972.488281 206.359375 972.488281 208.941406 L 972.488281 209.382812 C 972.488281 210.488281 973.117188 211.117188 974.371094 211.261719 L 976.136719 211.261719 C 976.578125 211.261719 977.167969 211.335938 977.90625 211.484375 C 978.933594 211.632812 979.597656 212.253906 979.894531 213.359375 L 980.113281 217.335938 C 980.332031 220.289062 980.074219 224.414062 979.335938 229.714844 C 979.117188 230.96875 978.382812 231.667969 977.128906 231.816406 L 975.359375 231.921875 L 973.484375 231.921875 C 972.085938 231.851562 971.390625 232.445312 971.390625 233.691406 L 971.390625 236.679688 C 971.53125 237.929688 971.53125 238.957031 971.390625 239.769531 C 971.3125 243.085938 971.128906 245.886719 970.832031 248.171875 C 970.761719 249.714844 969.839844 250.453125 968.074219 250.378906 C 967.925781 250.378906 967.8125 250.34375 967.738281 250.265625 L 967.414062 250.265625 C 966.671875 250.117188 966.085938 250.082031 965.644531 250.160156 L 964.648438 250.265625 L 963.765625 250.378906 C 961.183594 250.820312 958.570312 251.152344 955.921875 251.371094 C 954.523438 251.445312 953.816406 250.746094 953.816406 249.269531 L 953.816406 245.40625 "/>
</g>
</svg>
